<?xml version="1.0" standalone="no"?>
<!DOCTYPE svg PUBLIC "-//W3C//DTD SVG 20010904//EN"
 "http://www.w3.org/TR/2001/REC-SVG-20010904/DTD/svg10.dtd">
<svg version="1.0" xmlns="http://www.w3.org/2000/svg"
 width="700.000000pt" height="700.000000pt" viewBox="0 0 700.000000 700.000000"
 preserveAspectRatio="xMidYMid meet">
<metadata>
Created by potrace 1.11, written by Peter Selinger 2001-2013
</metadata>
<g transform="translate(0.000000,700.000000) scale(0.100000,-0.100000)"
fill="#000000" stroke="none">
<path d="M3900 5248 c-92 -10 -154 -19 -156 -21 -2 -2 -8 -20 -306 -902 -116
-341 -239 -705 -274 -810 -35 -104 -135 -401 -222 -660 -88 -258 -206 -606
-262 -773 -56 -167 -100 -305 -98 -308 6 -5 40 -10 153 -23 110 -13 377 -5
475 15 8 1 22 3 31 3 10 1 20 15 27 39 10 36 50 155 367 1087 86 253 174 512
195 575 41 121 294 864 303 890 3 8 35 103 71 210 36 107 101 300 145 428 70
208 77 232 60 233 -11 1 -22 2 -26 3 -81 19 -368 28 -483 14z"/>
<path d="M1975 4505 c-44 -17 -89 -35 -100 -40 -11 -5 -150 -60 -310 -122
-159 -63 -371 -146 -470 -185 -99 -39 -223 -88 -275 -108 -52 -20 -238 -93
-412 -161 l-317 -124 -15 -65 c-34 -148 -38 -375 -10 -534 22 -132 0 -112 237
-206 117 -46 232 -92 257 -101 25 -9 61 -23 80 -32 19 -8 249 -99 510 -202
261 -103 489 -193 505 -200 17 -7 71 -28 120 -48 50 -19 137 -54 194 -77 57
-23 107 -38 111 -33 34 36 36 600 2 635 -7 7 -263 96 -857 297 -648 220 -582
197 -573 206 4 5 267 101 298 110 8 2 62 22 120 43 58 22 202 74 320 116 118
42 231 83 250 91 19 8 127 47 240 87 l205 74 11 79 c13 91 15 336 3 400 -4 23
-9 63 -10 89 -3 55 -5 55 -114 11z"/>
<path d="M4917 4533 c-21 -34 -30 -515 -11 -597 l9 -39 130 -45 c72 -24 294
-100 495 -169 201 -68 457 -156 570 -195 113 -38 216 -73 230 -78 l25 -7 -29
-12 c-50 -20 -1246 -451 -1326 -478 -90 -31 -98 -37 -105 -88 -19 -126 -6
-537 18 -561 4 -5 99 32 997 386 129 51 399 158 600 237 385 151 395 155 396
169 0 5 3 23 7 39 23 102 27 144 28 295 1 118 -2 151 -16 220 -4 19 -19 122
-19 135 -1 5 -41 26 -91 46 -105 43 -67 28 -425 169 -157 61 -294 116 -305
121 -11 4 -99 39 -195 77 -96 38 -348 138 -560 222 -425 169 -416 165 -423
153z"/>
</g>
</svg>
